<svg width="36" height="19" viewBox="0 0 36 19" fill="none" xmlns="http://www.w3.org/2000/svg">
<path fill-rule="evenodd" clip-rule="evenodd" d="M35.5933 0.384105C35.7222 0.505554 35.8245 0.64983 35.8943 0.80867C35.9641 0.967509 36 1.13779 36 1.30976C36 1.48174 35.9641 1.65202 35.8943 1.81086C35.8245 1.9697 35.7222 2.11397 35.5933 2.23542L18.9798 17.9246C18.8512 18.0463 18.6984 18.1429 18.5303 18.2088C18.3621 18.2747 18.1817 18.3087 17.9996 18.3087C17.8175 18.3087 17.6372 18.2747 17.469 18.2088C17.3008 18.1429 17.148 18.0463 17.0194 17.9246L0.40601 2.23542C0.146046 1.98992 -7.66948e-08 1.65695 -6.06246e-08 1.30976C-4.45543e-08 0.962573 0.146046 0.629604 0.40601 0.384104C0.665974 0.138604 1.01856 0.000683082 1.3862 0.000683097C1.75385 0.000683112 2.10643 0.138604 2.36639 0.384104L17.9996 15.1502L33.6329 0.384105C33.7615 0.262349 33.9143 0.165748 34.0825 0.0998372C34.2507 0.033926 34.431 -6.47687e-08 34.6131 -5.72516e-08C34.7952 -4.97345e-08 34.9755 0.0339261 35.1437 0.0998373C35.3119 0.165748 35.4647 0.262349 35.5933 0.384105Z" fill="#FAFAFA"/>
</svg>
