<?xml version="1.0" encoding="UTF-8"?>
<svg id="Layer_1" xmlns="http://www.w3.org/2000/svg" version="1.1" viewBox="0 0 23 25">
  <!-- Generator: Adobe Illustrator 29.4.0, SVG Export Plug-In . SVG Version: 2.1.0 Build 152)  -->
  <defs>
    <style>
      .st0 {
        fill: #fff;
      }
    </style>
  </defs>
  <path class="st0" d="M2.06,4.73h18.88c.92,0,1.67.75,1.67,1.67h0c0,.92-.75,1.67-1.67,1.67H2.06c-.92,0-1.67-.75-1.67-1.67H.4c0-.92.75-1.67,1.67-1.67Z"/>
  <path class="st0" d="M2.06,16.94h18.88c.92,0,1.67.75,1.67,1.67h0c0,.92-.75,1.67-1.67,1.67H2.06c-.92,0-1.67-.75-1.67-1.67H.4c0-.92.75-1.67,1.67-1.67Z"/>
</svg>